<svg width="32" height="33" fill="none" xmlns="http://www.w3.org/2000/svg"><g clip-path="url(#a)"><path fill-rule="evenodd" clip-rule="evenodd" d="M31.267 8.43c.221-.728 0-1.263-1.06-1.263h-3.5c-.891 0-1.302.462-1.524.973 0 0-1.78 4.261-4.302 7.03-.816.802-1.186 1.057-1.632 1.057-.222 0-.557-.255-.557-.985V8.43c0-.874-.245-1.263-.987-1.263h-5.504c-.556 0-.89.405-.89.79 0 .828 1.261 1.02 1.39 3.35v5.065c0 1.11-.204 1.312-.649 1.312-1.187 0-4.073-4.282-5.787-9.18-.332-.953-.668-1.337-1.562-1.337H1.2c-1 0-1.2.462-1.2.973 0 .91 1.187 5.426 5.527 11.401 2.893 4.08 6.966 6.292 10.677 6.292 2.225 0 2.5-.49 2.5-1.337v-3.084c0-.983.21-1.179.916-1.179.52 0 1.41.256 3.487 2.223 2.373 2.332 2.764 3.377 4.1 3.377h3.5c1 0 1.501-.49 1.213-1.461-.317-.965-1.45-2.367-2.953-4.03-.816-.946-2.04-1.966-2.412-2.477-.519-.654-.371-.946 0-1.53 0 0 4.266-5.9 4.71-7.905h.002Z" fill="#FF5000"/></g><defs><clipPath id="a"><path fill="#fff" transform="translate(0 .5)" d="M0 0h32v32H0z"/></clipPath></defs></svg>