<svg width="32" height="33" fill="none" xmlns="http://www.w3.org/2000/svg"><g clip-path="url(#a)"><path d="M31.333 9.176a3.715 3.715 0 0 0-1.021-1.693 4.066 4.066 0 0 0-1.784-.99c-2.504-.66-12.536-.66-12.536-.66-4.182-.047-8.364.162-12.52.627a4.213 4.213 0 0 0-1.784 1.013A3.862 3.862 0 0 0 .65 9.175 38.787 38.787 0 0 0 0 16.5a38.717 38.717 0 0 0 .65 7.325 3.77 3.77 0 0 0 1.034 1.692c.495.47 1.11.81 1.788.99 2.537.66 12.52.66 12.52.66 4.187.047 8.374-.162 12.536-.627a4.066 4.066 0 0 0 1.784-.99 3.707 3.707 0 0 0 1.02-1.693c.46-2.415.684-4.868.668-7.326a35.442 35.442 0 0 0-.667-7.356Zm-18.53 11.89v-9.13l8.346 4.565-8.347 4.564Z" fill="#FF5000"/></g><defs><clipPath id="a"><path fill="#fff" transform="translate(0 .5)" d="M0 0h32v32H0z"/></clipPath></defs></svg>